<svg aria-hidden="true" style="position: absolute; width: 0; height: 0; overflow: hidden;" version="1.1" xmlns="http://www.w3.org/2000/svg" xmlns:xlink="http://www.w3.org/1999/xlink">
<defs>
<symbol id="icon-Vector-2-1" viewBox="0 0 43 32">
<path d="M37.333 0h-32c-2.2 0-3.981 1.8-3.981 4l-0.019 24c0 2.2 1.8 4 4 4h32c2.2 0 4-1.8 4-4v-24c0-2.2-1.8-4-4-4zM36.533 8.501l-14.139 8.837c-0.302 0.188-0.668 0.3-1.060 0.3s-0.758-0.112-1.069-0.305l0.009 0.005-14.141-8.84c-0.503-0.301-0.835-0.843-0.835-1.463 0-0.938 0.761-1.699 1.699-1.699 0.349 0 0.673 0.105 0.943 0.285l-0.006-0.004 13.4 8.381 13.4-8.381c0.264-0.176 0.588-0.282 0.937-0.282 0.938 0 1.699 0.761 1.699 1.699 0 0.62-0.332 1.162-0.828 1.459l-0.008 0.004z"></path>
</symbol>
<symbol id="icon-Vector-1-1" viewBox="0 0 32 32">
<path d="M27.419 20.853l-4.201-0.48c-0.116-0.014-0.25-0.023-0.385-0.023-0.909 0-1.732 0.369-2.328 0.964l-3.045 3.045c-4.718-2.435-8.467-6.185-10.835-10.764l-0.065-0.139 3.063-3.056c0.596-0.596 0.964-1.419 0.964-2.328 0-0.136-0.008-0.27-0.024-0.401l0.002 0.016-0.48-4.169c-0.199-1.655-1.595-2.926-3.287-2.926-0.001 0-0.003 0-0.004 0h-2.861c-1.87-0.005-3.424 1.55-3.31 3.417 0.878 14.126 12.176 25.408 26.286 26.286 1.867 0.114 3.424-1.44 3.424-3.31v-2.862c0-0.005 0-0.010 0-0.016 0-1.681-1.266-3.067-2.897-3.256l-0.015-0.001z"></path>
</symbol>
<symbol id="icon-Vector-3" viewBox="0 0 32 32">
<path d="M16 16c4.418 0 8-3.582 8-8s-3.582-8-8-8v0c-4.418 0-8 3.582-8 8s3.582 8 8 8v0zM16 20c-5.339 0-16 2.68-16 8v2c0 1.099 0.901 2 2 2h28c1.099 0 2-0.901 2-2v-2c0-5.32-10.661-8-16-8z"></path>
</symbol>
<symbol id="icon-diagram-1" viewBox="0 0 32 32">
<path fill="#2196f3" style="fill: var(--color1, #2196f3)" d="M14.926 14.965h1.066v4.798h-1.066v-4.798zM19.19 17.097h1.066v2.665h-1.066v-2.665zM10.661 18.696h1.066v1.066h-1.066v-1.066zM7.463 18.163h1.066v1.599h-1.066v-1.599z"></path>
<path fill="#212121" style="fill: var(--color2, #212121)" d="M1.599 28.291h25.586c0.883-0.001 1.598-0.716 1.599-1.599v-2.132c-0.001-0.883-0.716-1.598-1.599-1.599h-0.533v-13.294l3.028-2.868c0.207 0.104 0.451 0.165 0.71 0.165 0.888 0 1.608-0.72 1.608-1.608s-0.72-1.608-1.608-1.608c-0.888 0-1.608 0.72-1.608 1.608 0 0.251 0.058 0.489 0.16 0.7l-0.004-0.010-0.004-0.010-2.281 2.162v-1.23c-0.001-0.883-0.716-1.598-1.599-1.599h-21.323c-0.883 0.001-1.598 0.716-1.599 1.599v15.992h-0.533c-0.883 0.001-1.598 0.716-1.599 1.599v2.132c0.001 0.883 0.716 1.598 1.599 1.599h0zM30.384 4.837c0.294 0 0.533 0.239 0.533 0.533s-0.239 0.533-0.533 0.533v0c-0.294 0-0.533-0.239-0.533-0.533s0.239-0.533 0.533-0.533v0zM3.198 6.969c0-0.294 0.239-0.533 0.533-0.533h21.323c0.294 0 0.533 0.239 0.533 0.533v2.239l-1.066 1.013v-2.185c0-0.295-0.239-0.534-0.534-0.534v0h-19.189c0 0 0 0 0 0-0.295 0-0.533 0.239-0.534 0.533v13.327c0 0.294 0.239 0.533 0.534 0.533h19.189c0 0 0 0 0 0 0.295 0 0.533-0.238 0.534-0.533v-9.675l1.066-1.010v12.283h-22.389v-15.991zM7.996 13.899h-0.005c-0.001 0-0.002 0-0.003 0-0.884 0-1.6 0.716-1.6 1.6s0.716 1.6 1.6 1.6c0.434 0 0.827-0.172 1.115-0.452l-0 0 1.853 0.93c0.069 0.035 0.151 0.056 0.238 0.056 0.158 0 0.3-0.068 0.398-0.177l0-0 3.939-4.432 3.872 2.902c0.088 0.066 0.199 0.106 0.32 0.106 0.142 0 0.271-0.055 0.366-0.146l-0 0 3.365-3.188v8.131h-18.123v-12.261h18.123v2.661l-3.771 3.572-3.904-2.927c-0.088-0.067-0.2-0.107-0.32-0.107-0.158 0-0.3 0.068-0.397 0.177l-0 0.001v0.001l-3.993 4.493-1.493-0.746c0.011-0.064 0.017-0.128 0.020-0.193-0.001-0.883-0.716-1.598-1.599-1.599h-0zM8.529 15.498c0 0.294-0.239 0.533-0.533 0.533s-0.533-0.239-0.533-0.533v0c0-0.294 0.239-0.533 0.533-0.533s0.533 0.239 0.533 0.533v0zM11.727 24.026h5.33v0.533c0 0.294-0.239 0.533-0.533 0.533v0h-4.265c-0.294 0-0.533-0.239-0.533-0.533v0-0.533zM1.067 24.56c0-0.294 0.238-0.533 0.533-0.533h9.062v0.533c0.001 0.883 0.716 1.598 1.599 1.599h4.265c0.883-0.001 1.598-0.716 1.599-1.599v-0.533h9.062c0.294 0 0.533 0.239 0.533 0.533v2.132c0 0.294-0.239 0.533-0.533 0.533v0h-25.586c-0.294 0-0.533-0.239-0.533-0.533v0-2.132z"></path>
</symbol>
<symbol id="icon-clock-1" viewBox="0 0 32 32">
<path fill="#212121" style="fill: var(--color2, #212121)" d="M31.296 15.301c-0.001-8.452-6.855-15.303-15.308-15.301s-15.303 6.855-15.301 15.308c0.002 6.788 4.422 12.543 10.541 14.545l0.108 0.031c0.057 0.018 0.122 0.028 0.19 0.028 0.125 0 0.242-0.034 0.342-0.094l-0.003 0.002c0.134-0.080 0.234-0.204 0.282-0.352l0.001-0.005 3.865-12.25c1.053-0.005 1.904-0.859 1.904-1.913 0-1.057-0.856-1.913-1.913-1.913-0.307 0-0.597 0.072-0.855 0.201l0.022-0.010-5.106-5.107c-0.114-0.109-0.269-0.176-0.44-0.176-0.352 0-0.638 0.286-0.638 0.638 0 0.171 0.067 0.326 0.176 0.44l-0-0 5.103 5.109c-0.12 0.239-0.191 0.52-0.191 0.818 0 0.003 0 0.006 0 0.008v-0c0 0.602 0.283 1.137 0.723 1.48l0.004 0.003-3.682 11.673c-7.278-2.681-11.004-10.754-8.324-18.032s10.754-11.004 18.032-8.323c7.278 2.681 11.004 10.754 8.323 18.032-1.345 3.581-4.003 6.406-7.374 7.938l-0.088 0.036-0.398-1.874c-0.064-0.291-0.319-0.505-0.625-0.505-0.164 0-0.313 0.061-0.426 0.163l0.001-0.001 0.001-0.001-3.837 3.426c-0.132 0.117-0.215 0.287-0.215 0.477 0 0.282 0.183 0.521 0.437 0.605l0.005 0.001 0.005 0.001 4.899 1.563c0.059 0.020 0.126 0.031 0.196 0.031 0.352 0 0.637-0.285 0.637-0.637 0-0.049-0.006-0.096-0.016-0.142l0.001 0.004 0.001 0.004-0.391-1.839c5.528-2.374 9.329-7.772 9.329-14.057v-0.032zM15.992 14.664c0.352 0 0.638 0.286 0.638 0.638s-0.286 0.638-0.638 0.638v0c-0.352 0-0.638-0.286-0.638-0.638s0.286-0.638 0.638-0.638v0zM18.092 29.528l2.184-1.948 0.603 2.84-2.787-0.892z"></path>
<path fill="#2196f3" style="fill: var(--color1, #2196f3)" d="M15.354 3.185v1.275c0 0.352 0.286 0.638 0.638 0.638s0.638-0.286 0.638-0.638v0-1.275c0-0.352-0.286-0.638-0.638-0.638s-0.638 0.286-0.638 0.638v0zM3.876 14.664c-0.352 0-0.638 0.286-0.638 0.638s0.286 0.638 0.638 0.638h1.275c0.352 0 0.638-0.286 0.638-0.638s-0.286-0.638-0.638-0.638h-1.275zM28.108 15.939c0.352 0 0.638-0.286 0.638-0.638s-0.286-0.638-0.638-0.638h-1.275c-0.352 0-0.638 0.286-0.638 0.638s0.286 0.638 0.638 0.638h1.275z"></path>
</symbol>
<symbol id="icon-astronaut-1" viewBox="0 0 32 32">
<path fill="#2196f3" style="fill: var(--color1, #2196f3)" d="M31.974 4.524c-0.064-0.19-0.226-0.33-0.424-0.362l-0.003-0h-0.003l-1.911-0.278-0.855-1.731c-0.179-0.365-0.777-0.365-0.956 0l-0.855 1.731-1.911 0.278c-0.26 0.039-0.456 0.261-0.456 0.528 0 0.149 0.061 0.285 0.16 0.382l0 0 1.383 1.348-0.326 1.903c-0.005 0.028-0.008 0.060-0.008 0.092 0 0.294 0.238 0.532 0.532 0.532 0.092 0 0.178-0.023 0.253-0.064l-0.003 0.001 1.709-0.899 1.709 0.899c0.072 0.038 0.157 0.060 0.247 0.060 0.295 0 0.534-0.239 0.534-0.534 0-0.032-0.003-0.064-0.008-0.095l0 0.003v0.003l-0.326-1.903 1.383-1.348c0.099-0.097 0.161-0.233 0.161-0.382 0-0.060-0.010-0.118-0.028-0.171l0.001 0.004 0.001 0.004zM29.511 5.851c-0.099 0.096-0.161 0.231-0.161 0.38 0 0.032 0.003 0.064 0.008 0.095l-0-0.003 0.191 1.114-1-0.526c-0.072-0.040-0.158-0.063-0.25-0.063s-0.179 0.024-0.254 0.066l0.003-0.001 0.003-0.001-1 0.526 0.191-1.114c0.005-0.028 0.008-0.060 0.008-0.092 0-0.149-0.061-0.283-0.16-0.379l-0-0-0.811-0.789 1.119-0.163c0.177-0.026 0.324-0.137 0.401-0.289l0.001-0.003 0.5-1.013 0.5 1.013c0.078 0.155 0.224 0.266 0.399 0.292l0.003 0 1.119 0.162-0.809 0.79zM26.134 20.522h-1.067v1.067h1.067v-1.067zM26.134 22.656h-1.067v1.066h1.067v-1.066zM27.2 21.589h-1.067v1.067h1.067v-1.067zM25.067 21.589h-1.067v1.067h1.067v-1.067zM22.4 26.389h-1.067v1.067h1.067v-1.067zM22.4 28.523h-1.067v1.067h1.067v-1.067zM23.467 27.456h-1.067v1.067h1.067v-1.067zM21.334 27.456h-1.067v1.067h1.067v-1.067zM16 24.256h-1.066v1.067h1.066v-1.067zM16 26.389h-1.066v1.067h1.066v-1.067zM17.067 25.322h-1.067v1.067h1.067v-1.067zM14.934 25.322h-1.067v1.067h1.067v-1.067zM5.867 6.122h-1.066v1.066h1.066v-1.066zM5.867 8.256h-1.066v1.066h1.066v-1.066zM6.933 7.189h-1.067v1.067h1.066v-1.067zM4.8 7.189h-1.067v1.067h1.067v-1.067z"></path>
<path fill="#212121" style="fill: var(--color2, #212121)" d="M24.715 14.16c-0.278-0.374-0.693-0.632-1.169-0.702l-0.010-0.001-0.009-0.001c-0.077-0.012-0.166-0.019-0.257-0.019-0.412 0-0.791 0.141-1.091 0.377l0.004-0.003 0.004-0.003-1.253 0.96-1.898 1.417-1.358-0.541c2.421-1.086 4.113-3.508 4.113-6.32 0-3.823-3.122-6.934-6.961-6.934s-6.961 3.11-6.961 6.934c0 1.386 0.415 2.674 1.12 3.759l-2.768-0.024c-0.009 0-0.016 0.005-0.023 0.005-0.058 0.003-0.112 0.015-0.162 0.034l0.003-0.001 0.004-0.001c-0.013 0.005-0.026 0.007-0.038 0.013-0.006 0.003-0.013 0.003-0.019 0.006l-3.234 1.597-1.893 0.91c-0.025 0.011-0.046 0.023-0.065 0.037l0.001-0.001 0.001-0.001c-0.482 0.324-0.795 0.867-0.795 1.484 0 0.3 0.074 0.584 0.206 0.832l-0.005-0.010-0.005-0.010c0.22 0.424 0.592 0.742 1.043 0.885l0.013 0.003c0.161 0.053 0.346 0.084 0.539 0.084 0.311 0 0.604-0.080 0.858-0.221l-0.009 0.005-0.009 0.005 1.388-0.738 2.264-1.169 1.357-0.008-6.782 6.749c-0.303 0.298-0.491 0.713-0.491 1.171 0 0.001 0 0.001 0 0.002v-0 0.005c0.002 0.919 0.748 1.663 1.667 1.664h0.002c0.001 0 0.002 0 0.003 0 0.459 0 0.875-0.185 1.177-0.485l-0 0 1.314-1.309 1.741-1.3 0.901 0.897-3.102 3.088c-0.303 0.299-0.491 0.713-0.491 1.172 0 0.001 0 0.001 0 0.002v-0 0.004c0 0.001 0 0.001 0 0.002 0 0.918 0.744 1.662 1.662 1.662 0.001 0 0.003 0 0.004 0h0.003c0.001 0 0.002 0 0.003 0 0.459 0 0.875-0.185 1.177-0.485l-0 0 4.488-4.472c0.007-0.006 0.016-0.009 0.022-0.016l5.166-5.658 3.471 0.494c0.023 0.004 0.049 0.006 0.076 0.006 0.067 0 0.131-0.014 0.189-0.039l-0.003 0.001c0.017-0.006 0.032-0.015 0.049-0.023 0.019-0.010 0.039-0.015 0.058-0.027l3.213-2.133c0.012-0.008 0.018-0.021 0.029-0.030 0.013-0.010 0.029-0.014 0.041-0.026l1.271-1.191c0.348-0.326 0.564-0.787 0.564-1.3 0-0.4-0.132-0.769-0.355-1.066l0.003 0.005zM2.13 17.77c-0.098 0.055-0.215 0.087-0.339 0.087-0.080 0-0.158-0.013-0.23-0.038l0.005 0.002 0.005 0.001c-0.293-0.094-0.502-0.365-0.502-0.684 0-0.234 0.112-0.442 0.286-0.573l0.002-0.001 0.002-0.001 1.314-0.632 0.449 1.313-0.992 0.527zM5.627 15.942l-1.548 0.8-0.255-0.746-0.184-0.537 2.027-1.001-0.040 1.484zM20.727 9.322c0 0.918-0.219 1.785-0.599 2.56l-4.181-1.899c-0.044-0.573-0.34-1.068-0.776-1.38l-0.006-0.004-0.006-0.004 1.464-4.86c2.377 0.756 4.104 2.974 4.104 5.588zM8.938 9.322c0-3.235 2.644-5.867 5.894-5.867 0.253 0 0.5 0.022 0.745 0.053l-1.432 4.753c-0.019 0-0.037-0.006-0.057-0.006h-0.001c0 0 0 0 0 0-1.032 0-1.869 0.835-1.872 1.867v0c0.003 1.031 0.84 1.866 1.872 1.867h0.001c0.695 0 1.295-0.383 1.618-0.944l3.863 1.755c-1.085 1.456-2.802 2.389-4.737 2.389h-0c-3.25 0-5.894-2.632-5.894-5.867zM14.895 10.122c0 0.441-0.362 0.8-0.806 0.8h-0.001c0 0 0 0 0 0-0.443 0-0.802-0.358-0.804-0.8v-0c0-0.441 0.361-0.8 0.806-0.8s0.806 0.359 0.806 0.8zM2.464 25.146c-0.11 0.109-0.261 0.177-0.428 0.177s-0.317-0.067-0.427-0.176l0 0c-0.109-0.107-0.177-0.257-0.177-0.422s0.068-0.315 0.177-0.422l0-0 0.962-0.959 0.852 0.848-0.959 0.955zM5.678 28.88c-0.11 0.109-0.261 0.177-0.428 0.177s-0.317-0.067-0.427-0.176l0 0c-0.109-0.107-0.177-0.257-0.177-0.422s0.068-0.315 0.177-0.422l0-0 0.963-0.959 0.852 0.848-0.96 0.955zM9.16 25.411l-0.001 0.001-1.765 1.76-0.852-0.848 1.765-1.757c0.036-0.039 0.066-0.084 0.089-0.133l0.001-0.003c0.007-0.014 0.020-0.026 0.026-0.040 0.016-0.041 0.019-0.085 0.026-0.128 0.003-0.025 0.014-0.048 0.014-0.073 0-0.035-0.013-0.070-0.020-0.105-0.006-0.032-0.006-0.064-0.019-0.096-0.025-0.053-0.056-0.098-0.092-0.138l0 0c-0.010-0.012-0.014-0.027-0.025-0.038h-0.001l-0.001-0.002-1.607-1.6c-0.017-0.017-0.039-0.024-0.058-0.038-0.025-0.020-0.052-0.039-0.081-0.056l-0.003-0.001-0.003-0.001c-0.026-0.012-0.056-0.023-0.087-0.030l-0.003-0.001-0.003-0.001c-0.029-0.009-0.064-0.016-0.099-0.020l-0.002-0h-0.002l-0.023-0.001c-0.027 0-0.053 0.002-0.078 0.005l0.003-0h0.003c-0.036 0.005-0.069 0.009-0.104 0.021-0.037 0.013-0.069 0.029-0.098 0.047l0.002-0.001 0.002-0.001c-0.020 0.011-0.043 0.015-0.061 0.029l-1.774 1.324-0.901-0.897 2.399-2.386 4.36 4.289-0.928 0.919zM15.979 18.394c-0.016-0.002-0.030 0.004-0.046 0.003l-0.027-0.001c-0.033 0-0.064 0.003-0.095 0.009l0.003-0h0.003c-0.070 0.011-0.134 0.036-0.189 0.071l0.002-0.001 0.002-0.001c-0.031 0.019-0.058 0.040-0.083 0.062l0-0c-0.013 0.011-0.028 0.016-0.040 0.029l-4.698 5.146-4.328-4.256 2.833-2.818c0.095-0.097 0.154-0.229 0.154-0.376 0-0.295-0.238-0.534-0.532-0.535h-0.002l-2.219 0.013 0.028-1.607 3.104 0.027c1.26 1.297 3.021 2.101 4.97 2.101 0.003 0 0.006 0 0.009 0h0.003c0.438 0 0.864-0.046 1.28-0.122 0.040 0.032 0.080 0.064 0.129 0.085l2.41 0.96 0.152 0.759 0.178 0.885-3.003-0.427zM20.020 18.572l-0.313-1.558 1.446-1.080 0.946 1.257-2.080 1.381zM23.773 15.741l-0.837 0.785-0.931-1.237 0.831-0.637c0.122-0.093 0.277-0.15 0.445-0.15 0.035 0 0.069 0.002 0.102 0.007l-0.004-0c0.352 0.049 0.62 0.348 0.621 0.71v0c0 0 0 0.001 0 0.002 0 0.205-0.087 0.389-0.226 0.519l-0 0z"></path>
<path fill="#212121" style="fill: var(--color2, #212121)" d="M13.602 18.544l-2.143-2.134c-0.096-0.097-0.229-0.156-0.376-0.156s-0.28 0.060-0.376 0.156l-0 0-2.143 2.133c-0.097 0.097-0.156 0.23-0.156 0.378s0.060 0.281 0.156 0.378v0l2.142 2.134c0.096 0.097 0.229 0.156 0.376 0.156s0.28-0.060 0.376-0.156l0-0 2.143-2.134c0.097-0.096 0.158-0.23 0.158-0.378s-0.060-0.282-0.158-0.378l-0-0zM11.083 20.303l-1.387-1.381 1.386-1.381 1.387 1.381-1.387 1.381zM17.164 5.071l-0.258 1.036c0.071 0.018 1.738 0.452 1.738 2.149h1.067c0-2.017-1.666-2.965-2.547-3.184zM19.711 9.322h-1.067v1.066h1.067v-1.066z"></path>
</symbol>
<symbol id="icon-antenna-1" viewBox="0 0 32 32">
<path fill="#212121" style="fill: var(--color2, #212121)" d="M30.773 22.098l-8.443-8.505 0.937-4.616c0.225 0.090 0.485 0.144 0.758 0.146h0.033c0 0 0 0 0 0 1.193 0 2.16-0.967 2.16-2.16s-0.967-2.16-2.16-2.16c-1.193 0-2.16 0.967-2.16 2.16 0 0.266 0.048 0.52 0.136 0.755l-0.005-0.015-0.005-0.015-4.96 0.606-8.091-8.133c-0.096-0.098-0.229-0.159-0.376-0.16h-0c-0.146 0.001-0.277 0.060-0.373 0.155l0-0-1.512 1.504c-0.096 0.097-0.155 0.23-0.155 0.377s0.059 0.28 0.155 0.377l-0-0 0.814 0.825c-1.143 2.062-1.816 4.522-1.816 7.139 0 4.106 1.656 7.824 4.336 10.525l-0.001-0.001c0.041 0.040 0.090 0.072 0.143 0.096l0.003 0.001c-0.033 0.164-0.051 0.353-0.052 0.546v6.188h-6.4c-1.472 0.001-2.665 1.194-2.667 2.666v1.067c0 0.295 0.239 0.534 0.534 0.534h24.534c0.294-0.001 0.533-0.239 0.533-0.534 0 0 0 0 0 0v0-1.067c-0.002-1.471-1.195-2.664-2.666-2.666h-6.4v-2.742c0.919 0.203 1.974 0.319 3.057 0.319 2.608 0 5.057-0.675 7.184-1.86l-0.075 0.038-0.077 0.039 0.818 0.823c0.096 0.098 0.229 0.159 0.376 0.16h0c0.146-0.001 0.277-0.060 0.373-0.155l-0 0 1.512-1.504c0.096-0.097 0.155-0.23 0.155-0.377s-0.059-0.28-0.155-0.377l0 0zM23.28 6.233c0.193-0.193 0.46-0.312 0.754-0.312 0.589 0 1.067 0.478 1.067 1.067s-0.478 1.067-1.067 1.067c-0.001 0-0.001 0-0.002 0h-0.004c-0.587-0.003-1.061-0.479-1.061-1.066 0-0.295 0.12-0.563 0.314-0.756l0-0h-0.002zM22.024 9.737l-0.598 2.946-1.175-1.183 1.774-1.763zM21.419 8.835l-1.92 1.909-1.486-1.493 3.406-0.416zM24.004 28.8c0.884 0 1.6 0.716 1.6 1.6v0 0.534h-23.466v-0.534c0-0.884 0.716-1.6 1.6-1.6h20.267zM16.538 26.666v1.067h-5.334v-1.067h5.334zM11.204 25.6v-4.053c0-1.294 1.196-2.346 2.667-2.346s2.667 1.053 2.667 2.346v4.053h-5.334zM17.604 23.904v-2.357c0-1.882-1.675-3.413-3.733-3.413h-0.058c-1.353 0-2.54 0.707-3.213 1.771l-0.009 0.016c-2.36-2.474-3.812-5.832-3.812-9.529 0-0.007 0-0.014 0-0.022v0.001c0-2.314 0.567-4.496 1.569-6.414l-0.036 0.077 18.602 18.709c-1.823 0.947-3.979 1.502-6.266 1.502-1.079 0-2.128-0.124-3.136-0.357l0.093 0.018zM28.893 23.22l-21.057-21.181 0.754-0.752 7.935 7.98c0.004 0 0.006 0.007 0.010 0.010l13.114 13.191-0.757 0.752z"></path>
<path fill="#2196f3" style="fill: var(--color1, #2196f3)" d="M13.876 20.267h-0.007c-0 0-0.001 0-0.002 0-0.884 0-1.6 0.716-1.6 1.6s0.716 1.599 1.598 1.6h0.007c0 0 0.001 0 0.001 0 0.884 0 1.6-0.716 1.6-1.6s-0.716-1.599-1.599-1.6h-0zM14.249 22.245c-0.097 0.096-0.23 0.156-0.377 0.156-0.295 0-0.534-0.239-0.534-0.534s0.239-0.534 0.533-0.534h0c0.294 0.001 0.531 0.239 0.531 0.533 0 0.148-0.060 0.281-0.157 0.378l-0 0h0.005z"></path>
</symbol>
<symbol id="icon-twitter-1" viewBox="0 0 32 32">
<path d="M32 6.078c-1.1 0.493-2.376 0.857-3.713 1.028l-0.068 0.007c1.345-0.81 2.359-2.053 2.859-3.533l0.014-0.046 0.013-0.046c-1.173 0.713-2.538 1.259-3.993 1.559l-0.083 0.014-0.084 0.014c-1.2-1.279-2.9-2.076-4.787-2.076-3.622 0-6.558 2.936-6.558 6.558v0 0.004c0 0.52 0.043 1.021 0.152 1.496-5.454-0.266-10.28-2.88-13.522-6.861-0.567 0.947-0.902 2.089-0.902 3.31 0 0.001 0 0.002 0 0.003v0.001c0.003 2.262 1.149 4.256 2.891 5.436l0.023 0.015c-1.104-0.029-2.132-0.33-3.026-0.84l0.032 0.017 0.033 0.017v0.072c0.003 3.15 2.215 5.782 5.169 6.432l0.087 0.016c-0.494 0.137-1.060 0.215-1.645 0.215-0.006 0-0.012 0-0.018-0h-0.057c-0.419 0-0.843-0.024-1.242-0.112 0.85 2.598 3.261 4.509 6.13 4.57-2.204 1.745-5.025 2.8-8.092 2.8-0.011 0-0.021 0-0.032-0h-0.072c-0.531 0-1.055-0.034-1.569-0.099l0.061 0.006c2.826 1.846 6.287 2.944 10.004 2.944h0.060c12.072 0 18.672-10 18.672-18.669 0-0.288-0.010-0.57-0.024-0.848 1.283-0.927 2.364-2.039 3.229-3.309l0.029-0.046 0.030-0.047z"></path>
</symbol>
<symbol id="icon-smartphone-1" viewBox="0 0 20 32">
<path d="M17 0h-14c-1.654 0-3 1.346-3 3v26c0 1.654 1.346 3 3 3h14c1.654 0 3-1.346 3-3v-26c0-1.654-1.346-3-3-3zM3 2h14c0.552 0 1 0.448 1 1v0 21h-16v-21c0-0.552 0.448-1 1-1v0zM17 30h-14c-0.552 0-1-0.448-1-1v0-3h16v3c0 0.552-0.448 1-1 1v0z"></path>
<path d="M4.708 27.478c0.18 0.163 0.293 0.398 0.293 0.66s-0.112 0.496-0.292 0.658l-0.001 0.001-0.001 0.001c-0.186 0.171-0.435 0.276-0.708 0.276s-0.523-0.105-0.709-0.276l0.001 0.001 0.001 0.001c-0.18-0.163-0.293-0.398-0.293-0.66s0.112-0.496 0.292-0.658l0.001-0.001 0.001-0.001c0.186-0.171 0.435-0.276 0.709-0.276s0.523 0.105 0.709 0.276l-0.001-0.001-0.001-0.001z"></path>
</symbol>
<symbol id="icon-linkedin-1" viewBox="0 0 32 32">
<path d="M31.992 32h0.008v-11.738c0-5.741-1.237-10.163-7.947-10.163-3.227 0-5.392 1.77-6.277 3.45h-0.093v-2.914h-6.365v21.363h6.627v-10.578c0-2.786 0.528-5.48 3.978-5.48 3.398 0 3.448 3.179 3.448 5.658v10.402h6.621zM0.528 10.635h6.635v21.365h-6.635v-21.365zM3.843 0c-2.122 0-3.843 1.721-3.843 3.843v0c0 2.12 1.722 3.878 3.843 3.878 2.12 0 3.842-1.757 3.842-3.878s-1.72-3.841-3.841-3.843z"></path>
</symbol>
<symbol id="icon-instagram-2" viewBox="0 0 32 32">
<path d="M31.968 9.408c-0.074-1.701-0.349-2.869-0.742-3.882-0.425-1.111-1.054-2.057-1.849-2.836l-0.001-0.001-0.001-0.001c-0.767-0.779-1.692-1.399-2.725-1.808l-0.053-0.019-0.054-0.018c-1.019-0.394-2.181-0.667-3.882-0.742-1.712-0.082-2.256-0.101-6.602-0.101-4.344 0-4.888 0.019-6.595 0.094-1.699 0.074-2.869 0.349-3.88 0.742-1.111 0.425-2.058 1.054-2.838 1.849l-0.001 0.001-0.001 0.001c-0.778 0.767-1.398 1.692-1.806 2.725l-0.019 0.053-0.018 0.054c-0.395 1.019-0.669 2.181-0.744 3.882-0.082 1.712-0.101 2.256-0.101 6.602 0 4.344 0.019 4.888 0.094 6.595 0.075 1.701 0.35 2.869 0.744 3.882 0.427 1.11 1.056 2.056 1.848 2.836l0.001 0.001 0.001 0.001c0.8 0.813 1.77 1.443 2.832 1.843 1.019 0.395 2.182 0.67 3.882 0.744 1.707 0.075 2.251 0.094 6.595 0.094 4.346 0 4.89-0.019 6.595-0.094 1.701-0.074 2.869-0.349 3.882-0.742 2.137-0.848 3.8-2.5 4.644-4.573l0.020-0.055 0.019-0.055c0.394-1.019 0.669-2.182 0.744-3.882 0.075-1.707 0.093-2.251 0.093-6.595s-0.006-4.888-0.080-6.595zM29.088 22.474c-0.070 1.563-0.333 2.406-0.55 2.97-0.55 1.386-1.623 2.465-2.968 3.011l-0.036 0.013-0.036 0.012c-0.56 0.219-1.411 0.482-2.968 0.55-1.688 0.075-2.194 0.094-6.464 0.094-4.269 0-4.782-0.019-6.464-0.094-1.563-0.069-2.406-0.331-2.97-0.55-0.72-0.27-1.333-0.676-1.835-1.191l-0.001-0.001-0.001-0.001c-0.509-0.495-0.912-1.097-1.172-1.769l-0.012-0.034-0.011-0.034c-0.218-0.563-0.48-1.413-0.549-2.97-0.075-1.688-0.094-2.195-0.094-6.464 0-4.27 0.019-4.784 0.094-6.464 0.069-1.563 0.331-2.406 0.549-2.97 0.269-0.721 0.678-1.335 1.197-1.836l0.001-0.001 0.002-0.002c0.496-0.509 1.099-0.911 1.772-1.17l0.034-0.012 0.034-0.011c0.56-0.219 1.411-0.48 2.968-0.55 1.688-0.074 2.195-0.093 6.464-0.093 4.275 0 4.782 0.019 6.464 0.093 1.563 0.069 2.406 0.331 2.97 0.55 0.721 0.269 1.335 0.676 1.836 1.193l0.001 0.001c0.531 0.52 0.938 1.144 1.195 1.84 0.218 0.56 0.48 1.411 0.549 2.968 0.075 1.688 0.094 2.194 0.094 6.464 0 4.269-0.019 4.768-0.094 6.458z"></path>
<path d="M16.059 7.782c-4.539 0.002-8.218 3.682-8.219 8.221v0c0.099 4.465 3.742 8.046 8.221 8.046 4.476 0 8.117-3.577 8.221-8.028l0-0.010v-0.009c-0.001-4.54-3.681-8.22-8.221-8.221h-0zM16.059 21.334c-2.945-0-5.332-2.388-5.332-5.333s2.388-5.333 5.333-5.333c0 0 0 0 0.001 0h0.001c2.946 0 5.334 2.388 5.334 5.334s-2.388 5.334-5.334 5.334v0zM26.525 7.458c0 1.060-0.86 1.92-1.92 1.92s-1.92-0.86-1.92-1.92v0c0-1.060 0.86-1.92 1.92-1.92s1.92 0.86 1.92 1.92v0z"></path>
</symbol>
<symbol id="icon-group-6" viewBox="0 0 27 32">
<path d="M4 0.475l4.672 4.423-8.672-0.005v21.458h22.667v-8.205l4.667 4.418v-22.089h-23.333zM22.461 17.628l-13.247-12.54h13.247v12.54zM18.349 23.213h-14.762v-14.433h1.043v13.455h13.719v0.977zM7.073 29.208l-0.545 1.123-0.545-1.123h-0.457l0.796 1.497v0.873h0.413v-0.873l0.794-1.497h-0.455zM7.759 31.578l0.192-0.552h0.918l0.193 0.552h0.43l-0.897-2.37h-0.37l-0.895 2.37h0.428zM8.409 29.711l0.343 0.983h-0.687l0.343-0.983zM10.581 30.637c-0.056 0.083-0.089 0.185-0.089 0.295 0 0.001 0 0.002 0 0.002v-0 0.004c0 0.2 0.070 0.362 0.21 0.487s0.329 0.186 0.563 0.186c0.008 0 0.017 0 0.026 0 0.218 0 0.42-0.072 0.582-0.193l-0.003 0.002 0.133 0.158h0.459l-0.348-0.412c0.137-0.187 0.205-0.426 0.205-0.717h-0.343c0 0.004 0 0.008 0 0.013 0 0.154-0.037 0.299-0.102 0.427l0.002-0.005-0.458-0.54 0.161-0.117c0.097-0.066 0.178-0.147 0.242-0.241l0.002-0.003 0.002-0.003c0.047-0.076 0.075-0.169 0.075-0.268 0-0 0-0.001 0-0.001v0-0.013c0-0 0-0.001 0-0.001 0-0.145-0.064-0.276-0.165-0.364l-0.001-0h-0.001c-0.105-0.096-0.246-0.154-0.4-0.154-0 0-0 0-0 0h-0.024c-0.009-0-0.021-0.001-0.032-0.001-0.163 0-0.312 0.062-0.424 0.164l0.001-0c-0.105 0.104-0.17 0.249-0.17 0.408 0 0.011 0 0.022 0.001 0.032l-0-0.002c0 0.076 0.018 0.155 0.053 0.236 0.037 0.081 0.102 0.18 0.193 0.296-0.175 0.126-0.293 0.235-0.353 0.327zM11.65 31.161c-0.101 0.082-0.232 0.132-0.374 0.133h-0.019c-0 0-0.001 0-0.001 0-0.102 0-0.194-0.039-0.263-0.103l0 0c-0.065-0.064-0.106-0.153-0.106-0.251 0-0.001 0-0.001 0-0.002v0-0.013c0-0.127 0.065-0.24 0.195-0.339l0.051-0.036 0.517 0.611zM11.225 30.111c-0.112-0.137-0.168-0.252-0.168-0.343 0-0.079 0.023-0.145 0.069-0.197 0.043-0.048 0.105-0.078 0.174-0.078 0 0 0 0 0 0h0.019c0.065 0 0.125 0.025 0.169 0.067 0.047 0.043 0.070 0.096 0.070 0.157v0.009c-0 0.088-0.039 0.167-0.1 0.221l-0 0-0.051 0.040-0.181 0.124zM15.083 31.399c0.163-0.142 0.256-0.34 0.28-0.592h-0.41c-0.022 0.169-0.073 0.29-0.155 0.363s-0.203 0.109-0.365 0.109c-0.177 0-0.311-0.067-0.403-0.202s-0.137-0.33-0.137-0.586v-0.21c0.003-0.253 0.051-0.444 0.147-0.575 0.089-0.12 0.231-0.198 0.39-0.198 0.008 0 0.016 0 0.024 0.001l-0.001-0c0.154 0 0.271 0.038 0.35 0.113s0.13 0.198 0.15 0.369h0.41c-0.027-0.26-0.119-0.46-0.279-0.603s-0.37-0.213-0.631-0.213c-0.005-0-0.011-0-0.017-0-0.184 0-0.356 0.052-0.501 0.142l0.004-0.002c-0.147 0.094-0.263 0.226-0.336 0.382l-0.002 0.006-0.002 0.006c-0.076 0.166-0.12 0.359-0.12 0.563v0.249c0.003 0.218 0.044 0.409 0.122 0.575s0.189 0.292 0.332 0.383c0.137 0.084 0.303 0.133 0.481 0.133 0.007 0 0.014-0 0.020-0l-0.001 0c0.27 0 0.487-0.071 0.649-0.212zM17.503 31.067c0.080-0.175 0.121-0.38 0.121-0.612v-0.155c0-0.211-0.046-0.412-0.128-0.592l0.004 0.009c-0.075-0.166-0.193-0.302-0.339-0.396l-0.004-0.002-0.004-0.002c-0.149-0.093-0.319-0.14-0.513-0.14s-0.364 0.047-0.514 0.141c-0.152 0.098-0.271 0.236-0.345 0.399l-0.002 0.006c-0.077 0.17-0.122 0.369-0.122 0.579 0 0.002 0 0.003 0 0.005v-0 0.162c0.001 0.227 0.042 0.427 0.123 0.6 0.078 0.168 0.197 0.304 0.345 0.401l0.004 0.002c0.142 0.088 0.315 0.14 0.499 0.14 0.005 0 0.010-0 0.015-0h-0.001c0.005 0 0.012 0 0.018 0 0.184 0 0.355-0.052 0.501-0.142l-0.004 0.002c0.151-0.098 0.27-0.236 0.343-0.398l0.002-0.006zM17.062 29.727c0.1 0.14 0.149 0.341 0.149 0.604v0.123c0 0.267-0.049 0.47-0.148 0.609-0.088 0.127-0.233 0.21-0.397 0.21-0.008 0-0.016-0-0.024-0.001l0.001 0h-0.017c-0 0-0 0-0 0-0.167 0-0.315-0.083-0.404-0.21l-0.001-0.002-0.001-0.002c-0.101-0.142-0.151-0.343-0.151-0.604v-0.137c0.002-0.255 0.053-0.452 0.153-0.591 0.089-0.128 0.235-0.21 0.4-0.21 0 0 0.001 0 0.001 0h0.017c0.183 0 0.323 0.070 0.422 0.21z"></path>
</symbol>
<symbol id="icon-group-5" viewBox="0 0 65 32">
<path d="M10.016 9.983h-0.002c-1.827 0-3.308 1.316-3.308 2.94v0.002c0 1.624 1.481 2.94 3.308 2.94h0.002c1.827 0 3.308-1.317 3.308-2.94v-0.002c0-1.624-1.481-2.941-3.308-2.941zM34.434 9.044c-0.005-2.255-1.016-4.418-2.81-6.012s-4.226-2.493-6.763-2.498c-2.539 0.004-4.972 0.902-6.767 2.497s-2.806 3.757-2.811 6.013v12.437s19.15-1.896 19.152-12.434v-0.002zM0 25.562c0.005 1.57 0.709 3.073 1.957 4.183s2.94 1.735 4.706 1.739c1.765-0.005 3.457-0.63 4.706-1.739s1.952-2.613 1.957-4.181v-8.654s-13.324 1.32-13.324 8.652zM6.662 27.112c-0.345 0-0.682-0.091-0.969-0.261-0.276-0.163-0.494-0.397-0.634-0.677l-0.004-0.009-0.004-0.009c-0.083-0.174-0.132-0.377-0.132-0.593 0-0.11 0.013-0.218 0.037-0.321l-0.002 0.009-0.002 0.009c0.075-0.319 0.244-0.591 0.475-0.793l0.002-0.002c0.24-0.212 0.54-0.362 0.871-0.421l0.011-0.002 0.011-0.002c0.103-0.019 0.222-0.031 0.343-0.031 0.244 0 0.477 0.045 0.692 0.127l-0.013-0.004-0.013-0.004c0.319 0.117 0.592 0.316 0.783 0.571s0.294 0.555 0.294 0.861c0.001 0.204-0.043 0.407-0.131 0.596-0.094 0.197-0.22 0.365-0.374 0.502l-0.002 0.001-0.002 0.001c-0.16 0.142-0.348 0.257-0.555 0.334l-0.012 0.004c-0.197 0.075-0.425 0.119-0.663 0.119-0.002 0-0.003 0-0.005 0h-0.001v-0.006z"></path>
</symbol>
<symbol id="icon-group-4" viewBox="0 0 67 32">
<path d="M33.724 15.223c-0.271-0.348-0.435-0.792-0.435-1.274 0-0.051 0.002-0.102 0.005-0.152l-0 0.007v0.006-2.051c0-0.628 0.142-1.106 0.428-1.433 0.284-0.327 0.774-0.489 1.468-0.488 0.652 0 1.116 0.139 1.389 0.417 0.299 0.355 0.444 0.789 0.411 1.226v0.482h-1.166v-0.489c0.001-0.019 0.001-0.042 0.001-0.064 0-0.146-0.013-0.289-0.037-0.428l0.002 0.015c-0.020-0.115-0.080-0.213-0.165-0.282l-0.001-0.001-0.001-0.001c-0.104-0.070-0.233-0.112-0.371-0.112-0.001 0-0.001 0-0.002 0h0l-0.052 0.002h0.002c-0.015-0.001-0.033-0.002-0.052-0.002-0.147 0-0.284 0.045-0.398 0.121l0.003-0.002 0.003-0.002c-0.096 0.077-0.164 0.183-0.192 0.305l-0.001 0.004-0.001 0.004c-0.030 0.14-0.047 0.302-0.047 0.467v2.528c-0.019 0.24 0.033 0.48 0.149 0.698 0.060 0.074 0.137 0.132 0.226 0.167l0.004 0.001 0.004 0.001c0.068 0.027 0.147 0.043 0.23 0.043 0.026 0 0.052-0.002 0.078-0.005l-0.003 0h-0.003c0.015 0.001 0.032 0.002 0.050 0.002 0.137 0 0.263-0.043 0.366-0.117l-0.002 0.001-0.002 0.001c0.089-0.074 0.152-0.178 0.174-0.296l0-0.003v-0.003c0.027-0.165 0.040-0.332 0.036-0.498v-0.505h1.167v0.461c0.003 0.038 0.004 0.081 0.004 0.126 0 0.443-0.155 0.851-0.413 1.171l0.003-0.004 0.003-0.004c-0.268 0.304-0.725 0.457-1.397 0.457s-1.179-0.163-1.466-0.501zM38.583 15.245c-0.295-0.32-0.442-0.784-0.442-1.399v-2.157c0-0.609 0.147-1.070 0.442-1.383s0.787-0.469 1.478-0.467c0.686 0 1.176 0.156 1.471 0.467 0.294 0.313 0.444 0.774 0.444 1.383v2.156c0 0.609-0.149 1.077-0.449 1.398s-0.787 0.481-1.466 0.481-1.181-0.163-1.479-0.479zM40.604 14.727c0.106-0.199 0.154-0.419 0.14-0.638v-2.641c0.001-0.021 0.002-0.046 0.002-0.071 0-0.206-0.053-0.399-0.145-0.568l0.003 0.006 0.003 0.006c-0.061-0.075-0.14-0.133-0.23-0.169l-0.004-0.001-0.004-0.001c-0.067-0.027-0.145-0.043-0.227-0.043-0.030 0-0.060 0.002-0.088 0.006l0.003-0h0.003c-0.024-0.003-0.053-0.005-0.081-0.005-0.083 0-0.163 0.016-0.236 0.045l0.004-0.002 0.004-0.002c-0.096 0.037-0.176 0.095-0.238 0.17l-0.001 0.001-0.001 0.001c-0.107 0.195-0.154 0.41-0.14 0.626v2.652c-0.014 0.22 0.033 0.439 0.14 0.639 0.069 0.067 0.15 0.12 0.241 0.156l0.005 0.002c0.089 0.035 0.192 0.056 0.3 0.056 0.11 0 0.215-0.021 0.311-0.060l-0.006 0.002-0.006 0.002c0.096-0.037 0.178-0.091 0.246-0.158l-0 0v-0.013zM43.381 9.902h1.256l0.944 3.979 0.967-3.979h1.222l0.124 5.743h-0.904l-0.097-3.991-0.932 3.991h-0.725l-0.966-4.006-0.090 4.006h-0.913l0.114-5.743zM49.301 9.902h1.957c1.127 0 1.691 0.543 1.691 1.631 0 1.041-0.594 1.562-1.781 1.56h-0.666v2.552h-1.208l0.007-5.744zM50.973 12.356c0.031 0.004 0.068 0.006 0.105 0.006 0.212 0 0.407-0.071 0.563-0.19l-0.002 0.002c0.112-0.152 0.179-0.342 0.179-0.549 0-0.035-0.002-0.070-0.006-0.105l0 0.004 0.001-0.063c0-0.163-0.022-0.321-0.062-0.471l0.003 0.013c-0.019-0.061-0.050-0.114-0.089-0.158l0 0c-0.041-0.046-0.091-0.084-0.146-0.113l-0.003-0.001-0.003-0.001c-0.14-0.059-0.303-0.094-0.474-0.094-0.001 0-0.002 0-0.003 0h0l-0.066 0.002h-0.466v1.717h0.469zM54.692 9.902h1.297l1.331 5.743h-1.126l-0.263-1.324h-1.157l-0.27 1.324h-1.143l1.331-5.743zM55.8 13.655l-0.452-2.411-0.452 2.411h0.903zM58.394 9.902h0.846l1.618 3.276v-3.276h1.003v5.743h-0.804l-1.628-3.42v3.42h-1.036l0.002-5.743zM64.209 13.454l-1.345-3.545h1.133l0.821 2.278 0.77-2.278h1.109l-1.329 3.546v2.19h-1.159v-2.19zM35.59 18.156v0.3h-0.986v2.334h-0.413v-2.334h-0.991v-0.3h2.389zM38.679 20.79h-0.328c-0 0-0.001 0-0.001 0-0.030 0-0.058-0.009-0.081-0.025l0 0c-0.023-0.015-0.041-0.035-0.052-0.059l-0-0.001v-0.001l-0.285-0.626h-1.367l-0.284 0.626c-0.009 0.028-0.024 0.052-0.044 0.071l-0 0c-0.023 0.016-0.051 0.025-0.081 0.025-0 0-0.001 0-0.001 0h-0.326l1.208-2.634h0.42l1.223 2.624zM36.679 19.812h1.14l-0.484-1.072c-0.030-0.064-0.059-0.142-0.083-0.223l-0.003-0.012-0.003-0.014-0.045 0.14-0.044 0.11-0.478 1.070zM40.762 20.531c0.076 0.004 0.151 0.004 0.228 0 0.073-0.007 0.139-0.018 0.203-0.033l-0.010 0.002c0.059-0.012 0.117-0.028 0.174-0.048 0.053-0.018 0.107-0.042 0.161-0.065v-0.592h-0.487c-0 0-0 0-0 0-0.023 0-0.044-0.008-0.061-0.022l0 0c-0.008-0.006-0.014-0.013-0.018-0.021l-0-0c-0.004-0.007-0.006-0.015-0.006-0.023 0-0 0-0.001 0-0.001v0-0.205h0.937v1.010c-0.143 0.090-0.308 0.162-0.483 0.208l-0.013 0.003-0.013 0.003c-0.1 0.026-0.2 0.043-0.302 0.055-0.104 0.010-0.225 0.016-0.347 0.016-0.002 0-0.004 0-0.006 0h-0.015c-0.212 0-0.416-0.036-0.606-0.102l0.013 0.004c-0.187-0.065-0.349-0.159-0.488-0.279l0.002 0.002 0.002 0.002c-0.127-0.113-0.231-0.248-0.305-0.401l-0.003-0.008-0.003-0.008c-0.070-0.155-0.111-0.335-0.111-0.526 0-0.001 0-0.002 0-0.004v0-0.034c0-0.193 0.040-0.377 0.112-0.543l-0.003 0.009c0.069-0.156 0.176-0.299 0.311-0.417 0.138-0.119 0.302-0.211 0.484-0.273 0.206-0.068 0.427-0.101 0.647-0.098 0.112 0 0.225 0.007 0.336 0.023 0.198 0.029 0.376 0.089 0.538 0.176l-0.009-0.004c0.074 0.041 0.144 0.087 0.211 0.137l-0.116 0.163c-0.010 0.015-0.023 0.027-0.038 0.035l-0.001 0h-0.001c-0.016 0.009-0.034 0.014-0.054 0.014-0 0-0.001 0-0.001 0h0c-0.028-0.001-0.053-0.008-0.076-0.021l0.001 0h0.001c-0.052-0.024-0.093-0.046-0.133-0.070l0.007 0.004 0.007 0.004c-0.043-0.024-0.094-0.047-0.146-0.067l-0.008-0.002-0.008-0.002c-0.059-0.021-0.13-0.041-0.203-0.055l-0.010-0.002-0.009-0.001c-0.085-0.015-0.183-0.023-0.283-0.023-0.003 0-0.005 0-0.008 0h-0.031c-0.162 0-0.317 0.027-0.462 0.076l0.010-0.003c-0.138 0.047-0.256 0.118-0.357 0.209l0.001-0.001c-0.093 0.088-0.169 0.195-0.22 0.315l-0.002 0.006-0.002 0.006c-0.051 0.13-0.081 0.282-0.081 0.44 0 0.161 0.031 0.315 0.087 0.456l-0.003-0.008-0.003-0.008c0.058 0.131 0.14 0.242 0.241 0.331l0.001 0.001c0.099 0.090 0.219 0.161 0.352 0.208 0.154 0.046 0.316 0.063 0.479 0.052zM44.612 20.49h1.319v0.3h-1.722v-2.634h0.412l-0.009 2.334zM47.303 20.79h-0.412v-2.634h0.412v2.634zM48.84 18.169c0.025 0.012 0.046 0.028 0.063 0.047l0 0 1.766 1.985-0.002-0.047 0.002-0.049v0.002-1.963h0.36v2.645h-0.222c-0.028-0-0.054-0.006-0.078-0.017l0.001 0h0.001c-0.025-0.013-0.047-0.030-0.065-0.050l-0-0-1.764-1.984v2.048h-0.346v-2.634h0.215c0.023 0 0.047 0.004 0.068 0.012zM54.070 18.156v0.289h-1.463v0.87h1.186v0.279h-1.186v0.9h1.463v0.289h-1.889v-2.628h1.889zM10.782 1.889l18.343 4.496v15.757l-18.343-4.494v-15.76zM9.605 0.545v17.868l20.693 5.075v-17.866l-20.693-5.076z"></path>
<path d="M20.696 31.781l-20.696-5.079v-17.865l20.696 5.077v17.867z"></path>
<path d="M9.948 1.686l18.103 4.44-7.698 6.649-18.107-4.442 7.702-6.647zM9.605 0.545l-9.605 8.292 20.696 5.077 9.603-8.294-20.693-5.075zM21.86 30.776l8.439-7.288-8.439-2.069v9.358z"></path>
</symbol>
<symbol id="icon-group-3" viewBox="0 0 43 32">
<path d="M3.239 26.373c0.155 0.173 0.25 0.402 0.25 0.654 0 0.004-0 0.008-0 0.012v-0.001c0.001 0.016 0.001 0.034 0.001 0.052 0 0.15-0.034 0.293-0.096 0.42l0.002-0.006 0.003-0.006c-0.071 0.151-0.171 0.277-0.294 0.376l-0.002 0.002-0.002 0.002c-0.281 0.194-0.628 0.311-1.003 0.311-0.045 0-0.089-0.002-0.133-0.005l0.006 0h-1.971v-4.214h1.936c0.035-0.002 0.076-0.004 0.117-0.004 0.358 0 0.692 0.107 0.97 0.291l-0.007-0.004-0.007-0.004c0.122 0.093 0.219 0.212 0.286 0.348l0.003 0.006c0.055 0.113 0.087 0.245 0.087 0.385 0 0.018-0.001 0.035-0.002 0.053l0-0.002c0.001 0.012 0.001 0.026 0.001 0.040 0 0.232-0.086 0.443-0.227 0.605l0.001-0.001c-0.15 0.168-0.358 0.283-0.59 0.33 0.262 0.044 0.499 0.172 0.667 0.361zM0.92 25.737h0.828c0.017 0.001 0.037 0.002 0.058 0.002 0.175 0 0.337-0.053 0.471-0.144l-0.003 0.002c0.059-0.049 0.106-0.111 0.139-0.181l0.001-0.003 0.001-0.003c0.024-0.054 0.038-0.117 0.038-0.183 0-0.001 0-0.001 0-0.002v0l-0.002-0.042v0.002l0.001-0.036c0-0.001 0-0.001 0-0.002 0-0.068-0.015-0.133-0.041-0.192l0.001 0.003 0.001 0.003c-0.032-0.074-0.079-0.137-0.137-0.186l-0.001-0.001-0.001-0.001c-0.133-0.091-0.297-0.145-0.473-0.145-0.025 0-0.050 0.001-0.075 0.003l0.003-0h-0.812v1.106zM2.355 27.353c0.064-0.050 0.115-0.114 0.15-0.187l0.001-0.003 0.001-0.003c0.028-0.058 0.044-0.127 0.044-0.199 0-0.001 0-0.002 0-0.003v0l-0.001-0.035v0.002l0.001-0.031c0-0 0-0 0-0.001 0-0.076-0.017-0.148-0.048-0.212l0.001 0.003 0.001 0.003c-0.037-0.077-0.089-0.142-0.153-0.192l-0.001-0.001-0.001-0.001c-0.141-0.097-0.315-0.154-0.503-0.154-0.022 0-0.043 0.001-0.065 0.002l0.003-0h-0.865v1.16h0.88c0.015 0.001 0.033 0.001 0.051 0.001 0.188 0 0.362-0.055 0.509-0.15l-0.004 0.002zM7.197 28.185l-1.076-1.648h-0.405v1.648h-0.927v-4.215h1.755c0.038-0.003 0.083-0.005 0.128-0.005 0.414 0 0.795 0.138 1.101 0.37l-0.005-0.003-0.005-0.003c0.255 0.234 0.415 0.567 0.42 0.937v0.001c0 0.307-0.109 0.589-0.291 0.808l0.002-0.002c-0.216 0.222-0.501 0.376-0.821 0.426l-0.008 0.001-0.008 0.001 1.147 1.684h-1.008zM5.715 25.963h0.758c0.526 0 0.79-0.212 0.79-0.638l0.001-0.034c0-0 0-0.001 0-0.001 0-0.081-0.017-0.158-0.046-0.228l0.001 0.004 0.001 0.004c-0.036-0.085-0.087-0.158-0.15-0.218l-0-0c-0.143-0.109-0.324-0.175-0.521-0.175-0.028 0-0.055 0.001-0.082 0.004l0.003-0h-0.764l0.009 1.283zM12.262 27.336h-1.846l-0.326 0.849h-0.972l1.695-4.168h1.051l1.689 4.168h-0.971l-0.319-0.848zM12.015 26.698l-0.675-1.779-0.675 1.779h1.349zM18.602 28.185h-0.919l-2.063-2.866v2.866h-0.918v-4.216h0.918l2.063 2.883v-2.883h0.919v4.216zM23.852 27.176c-0.191 0.318-0.48 0.577-0.833 0.744-0.355 0.169-0.772 0.267-1.212 0.267-0.003 0-0.005 0-0.008 0h0l-0.075-0.001h-1.637v-4.215l1.714-0.001c0.441 0 0.859 0.096 1.235 0.267l-0.019-0.008c0.352 0.163 0.642 0.419 0.832 0.735 0.189 0.343 0.288 0.722 0.288 1.106s-0.099 0.763-0.288 1.106zM22.8 27.075c0.25-0.261 0.404-0.616 0.406-1.006 0-0.369-0.144-0.726-0.406-1.006-0.284-0.226-0.647-0.362-1.042-0.362-0.040 0-0.081 0.001-0.12 0.004l0.005-0h-0.634v2.729h0.639c0.032 0.002 0.070 0.003 0.108 0.003 0.398 0 0.763-0.137 1.052-0.367l-0.003 0.003-0.004 0.003zM12.838 0.522s11.873 4.104 11.621 10.043v10.045s-11.864-4.106-11.617-10.045l-0.004-10.043zM35.037 18.259c2.152-1.365 4.719-2.277 7.475-2.54l0.069-0.005v-3.146c-3.12 1.102-5.767 3.098-7.544 5.691z"></path>
<path d="M33.69 19.207c1.835-3.384 5.017-5.995 8.891-7.297v-9.061s-16.909 5.846-16.552 14.304v14.302s0.754-0.261 1.939-0.752c0-0.457 0-0.918 0.054-1.382 0.349-3.926 2.388-7.564 5.667-10.115z"></path>
<path d="M32.082 24.52c0.099-1.081 0.309-2.076 0.619-3.024l-0.027 0.096c-2.043 2.203-3.279 4.936-3.536 7.816-0.025 0.272-0.039 0.543-0.045 0.824 1.484-0.641 2.642-1.211 3.771-1.826l-0.247 0.123-0.273 0.133c-0.202-0.878-0.318-1.886-0.318-2.921 0-0.43 0.020-0.855 0.059-1.275l-0.004 0.054zM32.754 24.571c-0.033 0.35-0.052 0.756-0.052 1.167 0 0.945 0.101 1.866 0.292 2.754l-0.015-0.086-0.015-0.084c4.62-2.531 9.811-6.442 9.61-11.168v-0.412c-3.301 0.338-6.388 1.659-8.79 3.76-0.529 1.175-0.893 2.538-1.022 3.97l-0.004 0.049-0.004 0.051z"></path>
</symbol>
<symbol id="icon-group-2" viewBox="0 0 34 32">
<path d="M5.643 31.315c0.012 0 0.024 0.003 0.035 0.008s0.021 0.011 0.030 0.018l0.166 0.158c-0.13 0.129-0.289 0.232-0.468 0.302-0.182 0.069-0.393 0.109-0.613 0.109-0.002 0-0.005 0-0.007 0h0l-0.045-0.001h0.002c-0.011 0-0.024 0-0.036 0-0.21 0-0.411-0.037-0.598-0.105l0.012 0.004c-0.182-0.066-0.339-0.164-0.471-0.287l0.001 0.001 0.001 0.001c-0.126-0.119-0.228-0.263-0.297-0.424l-0.003-0.008-0.003-0.008c-0.068-0.161-0.107-0.348-0.107-0.544 0-0.002 0-0.004 0-0.006v0-0.045c0-0.388 0.168-0.737 0.436-0.977l0.001-0.001c0.14-0.122 0.306-0.22 0.487-0.284l0.011-0.003c0.185-0.064 0.399-0.101 0.621-0.101 0.007 0 0.014 0 0.022 0h0.039c0.199 0 0.39 0.034 0.568 0.096l-0.012-0.004c0.165 0.062 0.316 0.149 0.447 0.255l-0.139 0.169c-0.010 0.012-0.021 0.022-0.033 0.030l-0.001 0h-0.001c-0.014 0.008-0.030 0.013-0.048 0.013h-0.008c-0.023-0.001-0.044-0.007-0.063-0.018l0.001 0h0.001l-0.074-0.046-0.104-0.058c-0.093-0.045-0.201-0.080-0.314-0.099l-0.007-0.001-0.007-0.001c-0.067-0.011-0.144-0.018-0.222-0.018-0.003 0-0.006 0-0.008 0h-0.033c-0.16 0-0.313 0.028-0.455 0.079l0.009-0.003c-0.14 0.050-0.261 0.122-0.364 0.215l0.001-0.001 0.001-0.001c-0.099 0.093-0.179 0.206-0.233 0.333l-0.002 0.006c-0.054 0.126-0.085 0.273-0.085 0.427 0 0.002 0 0.003 0 0.005v-0 0.035c0 0.157 0.031 0.307 0.088 0.444l-0.003-0.008c0.105 0.258 0.312 0.456 0.569 0.546l0.007 0.002c0.136 0.049 0.281 0.073 0.427 0.072 0.085 0.001 0.17-0.004 0.254-0.014 0.211-0.022 0.4-0.106 0.55-0.234l-0.001 0.001c0.021-0.017 0.048-0.028 0.078-0.029h0zM10.441 30.517c0.003 0.191-0.035 0.381-0.112 0.562-0.074 0.171-0.18 0.316-0.31 0.434l-0.001 0.001-0.001 0.001c-0.138 0.123-0.301 0.22-0.481 0.283l-0.010 0.003c-0.189 0.064-0.407 0.101-0.633 0.101-0.231 0-0.453-0.038-0.659-0.109l0.014 0.004 0.014 0.004c-0.189-0.068-0.351-0.165-0.49-0.289l0.001 0.001 0.001 0.001c-0.131-0.118-0.237-0.262-0.31-0.424l-0.003-0.008-0.003-0.008c-0.072-0.166-0.113-0.359-0.113-0.562 0-0.207 0.043-0.403 0.121-0.581l-0.004 0.009-0.004 0.010c0.071-0.165 0.178-0.315 0.316-0.442 0.137-0.119 0.3-0.213 0.478-0.274l0.010-0.003c0.189-0.065 0.407-0.103 0.633-0.103 0.231 0 0.453 0.039 0.659 0.111l-0.014-0.004-0.014-0.004c0.184 0.065 0.351 0.162 0.49 0.286 0.262 0.238 0.427 0.58 0.427 0.961 0 0.014-0 0.027-0.001 0.041l0-0.002zM10.005 30.517v-0.024c0-0.001 0-0.001 0-0.002 0-0.156-0.030-0.305-0.085-0.442l0.003 0.008 0.003 0.008c-0.101-0.257-0.305-0.455-0.559-0.546l-0.007-0.002-0.007-0.002c-0.137-0.047-0.295-0.074-0.46-0.074-0.168 0-0.329 0.028-0.479 0.081l0.010-0.003 0.010-0.003c-0.137 0.049-0.254 0.122-0.352 0.214l0.001-0c-0.096 0.091-0.171 0.201-0.221 0.325l-0.002 0.006-0.002 0.006c-0.050 0.134-0.080 0.289-0.080 0.451 0 0.165 0.030 0.323 0.086 0.469l-0.006-0.018c0.101 0.26 0.31 0.46 0.57 0.547l0.007 0.002c0.296 0.097 0.622 0.097 0.918 0 0.136-0.047 0.253-0.119 0.351-0.211l-0.001 0c0.095-0.093 0.171-0.206 0.22-0.332l0.002-0.006c0.056-0.145 0.082-0.298 0.079-0.451zM13.715 30.99l0.044 0.101c0.016-0.036 0.030-0.069 0.047-0.101 0.019-0.039 0.037-0.072 0.056-0.103l-0.002 0.004 1.061-1.677c0.021-0.029 0.040-0.047 0.061-0.053s0.047-0.009 0.073-0.009h0.328v2.728h-0.372v-2.090c-0.001-0.014-0.002-0.031-0.002-0.048s0.001-0.034 0.002-0.050l-0 0.002v0.002l-1.069 1.701c-0.015 0.026-0.036 0.047-0.061 0.061l-0.001 0h-0.001c-0.026 0.014-0.057 0.023-0.090 0.023h-0.064c-0 0-0.001 0-0.001 0-0.033 0-0.063-0.009-0.090-0.023l0.001 0h0.001c-0.026-0.014-0.047-0.035-0.061-0.060l-0-0.001v-0.001l-1.099-1.711v2.189h-0.359v-2.722h0.328c0.026 0 0.051 0.003 0.075 0.010h-0.002c0.026 0.011 0.046 0.030 0.058 0.053l1.084 1.678c0.020 0.028 0.038 0.061 0.053 0.095l0.001 0.003zM17.71 30.855v1.021h-0.414v-2.723h0.926c0.175-0.003 0.35 0.018 0.517 0.059 0.134 0.034 0.259 0.091 0.366 0.17 0.089 0.070 0.159 0.16 0.205 0.262l0.002 0.004c0.050 0.111 0.073 0.23 0.071 0.349v0.017c0 0 0 0.001 0 0.001 0 0.245-0.117 0.462-0.297 0.6l-0.002 0.001-0.002 0.001c-0.104 0.080-0.227 0.142-0.361 0.178l-0.007 0.002c-0.14 0.040-0.301 0.064-0.468 0.064h-0.035l-0.501-0.008zM17.71 30.562h0.503c0.109 0.002 0.218-0.013 0.322-0.041 0.090-0.026 0.168-0.067 0.235-0.12l-0.002 0.001-0.002 0.001c0.117-0.096 0.191-0.241 0.191-0.404 0-0 0-0 0-0v0-0.007l0.001-0.029c0-0.001 0-0.002 0-0.002 0-0.070-0.016-0.136-0.044-0.195l0.001 0.003 0.001 0.003c-0.035-0.074-0.084-0.135-0.143-0.184l-0.001-0.001-0.001-0.001c-0.138-0.093-0.309-0.149-0.492-0.149-0.025 0-0.049 0.001-0.073 0.003l0.003-0h-0.5v1.122zM23.294 31.88h-0.334c-0 0-0.001 0-0.002 0-0.032 0-0.061-0.010-0.085-0.026l0 0h0.001c-0.023-0.016-0.041-0.037-0.054-0.061l-0-0.001v-0.001l-0.282-0.658h-1.419l-0.293 0.658c-0.012 0.025-0.029 0.046-0.051 0.061l-0 0c-0.025 0.017-0.055 0.027-0.088 0.027-0 0-0.001 0-0.001 0h-0.332l1.246-2.728h0.432l1.263 2.728zM21.237 30.867h1.173l-0.495-1.11c-0.033-0.070-0.064-0.155-0.090-0.243l-0.003-0.013-0.048 0.142c-0.017 0.051-0.034 0.092-0.052 0.132l0.003-0.008 0.003-0.008-0.49 1.108zM25.089 29.166c0.025 0.012 0.045 0.028 0.062 0.048l0 0 1.817 2.056v-2.117h0.372v2.728h-0.212c-0 0-0 0-0 0-0.029 0-0.058-0.006-0.083-0.018l0.001 0.001h0.001c-0.026-0.013-0.048-0.030-0.066-0.050l-0-0-1.816-2.054 0.001 0.047-0.002 0.049v-0.002 2.027h-0.372v-2.728h0.22c0.025 0 0.051 0.005 0.075 0.013zM30.402 30.795v1.083h-0.415v-1.082l-1.149-1.643h0.381c0.030 0 0.057 0.009 0.080 0.023h-0.001c0.022 0.017 0.041 0.038 0.055 0.061l0.001 0.001 0.718 1.060c0.049 0.070 0.092 0.149 0.124 0.234l0.003 0.008 0.055-0.117c0.022-0.048 0.046-0.089 0.072-0.127l-0.002 0.003 0.709-1.067c0.015-0.022 0.033-0.041 0.053-0.058l0-0c0.023-0.017 0.051-0.027 0.082-0.027 0 0 0 0 0 0h0.384l-1.15 1.65zM13.509 24.576c0.181 0.020 0.363 0.036 0.549 0.050 2.803-1.090 5.174-2.872 6.818-5.126s2.485-4.878 2.421-7.546l-3.089-2.683c0.628 2.84 0.334 5.775-0.849 8.478s-3.208 5.067-5.849 6.827z"></path>
<path d="M12.407 24.451l0.083 0.015c2.822-1.755 4.973-4.203 6.176-7.031s1.402-5.904 0.571-8.83l-4.4-3.822c1.779 3.142 2.496 6.659 2.065 10.141-0.43 3.482-1.989 6.786-4.495 9.528zM27.328 15.106c-0.747 2.931-2.563 5.574-5.177 7.538-0.687 0.526-1.462 1.020-2.278 1.447l-0.089 0.043-0.092 0.043c2.129-0.543 4.085-1.504 5.718-2.808s2.901-2.917 3.703-4.714l-1.784-1.549z"></path>
<path d="M26.629 14.674l-2.541-2.207c-0.049 2.517-0.872 4.976-2.385 7.122s-3.66 3.902-6.217 5.084h0.012c0.57 0 1.139-0.030 1.705-0.088 2.39-0.848 4.502-2.197 6.146-3.926s2.771-3.785 3.278-5.985zM12.774 3.17l-3.031-2.636c-2.709 0.91-5.039 2.509-6.686 4.588s-2.531 4.542-2.539 7.066c0.010 2.789 1.090 5.495 3.070 7.69 1.979 2.194 4.744 3.754 7.858 4.43 2.78-2.942 4.408-6.578 4.646-10.379s-0.924-7.57-3.319-10.758zM33.63 14.268c-0.011-3.308-1.528-6.478-4.221-8.818s-6.342-3.658-10.15-3.668h-0.028c-1.831 0-3.59 0.305-5.231 0.867l0.114-0.034 18.556 16.122c0.605-1.313 0.958-2.849 0.96-4.468v-0.001z"></path>
</symbol>
<symbol id="icon-group-1" viewBox="0 0 24 32">
<path d="M10.333 2.203h-0.083c-0.127-0.008-0.254-0.011-0.38-0.014h-0.275c-0.24 0-0.484 0.006-0.727 0.018l-0.027-0.001-0.029 0.001h0.001c-2.37 0.136-4.57 0.735-6.552 1.708l0.1-0.044 0.102-0.044-0.261 0.126v13.368l0.611-0.207c0.536-0.184 1.107-0.35 1.698-0.504 1.46-0.391 3.141-0.626 4.873-0.649h0.014v1.756c-0.231 0.001-0.455 0.008-0.679 0.020l0.036-0.001h-0.051c-1.42 0.078-2.752 0.295-4.033 0.639l0.137-0.031 0.136-0.030c-1.738 0.44-3.261 1.055-4.674 1.846l0.096-0.049 0.098-0.050v-17.145c1.317-0.79 2.84-1.436 4.454-1.858l0.122-0.027 0.124-0.027c1.328-0.361 2.852-0.57 4.425-0.571h0.263c0.309 0.008 0.61 0.022 0.892 0.043 0.814 0.059 1.567 0.184 2.295 0.371l-0.088-0.019v1.729c-0.63-0.155-1.376-0.27-2.139-0.324l-0.043-0.002c-0.128-0.014-0.28-0.023-0.433-0.025l-0.004-0zM13.375 3.97c0.383 0.029 0.781 0.042 1.182 0.042 1.704-0.005 3.353-0.233 4.922-0.657l-0.133 0.031-0.132 0.030c1.738-0.442 3.261-1.057 4.674-1.847l-0.097 0.050-0.099 0.050v16.839c-1.317 0.789-2.84 1.435-4.454 1.857l-0.122 0.027-0.125 0.027c-1.328 0.36-2.852 0.568-4.425 0.57h-0.114c-1.154 0-2.275-0.145-3.345-0.417l0.094 0.020v-16.949c0.61 0.15 1.335 0.264 2.077 0.32l0.096 0.006zM21.945 4.1l-0.611 0.205c-0.561 0.189-1.129 0.358-1.698 0.508-1.521 0.407-3.269 0.644-5.071 0.651h-0.004c-0.399 0-0.765-0.010-1.119-0.034l-0.487-0.032v13.752l0.418 0.036c0.388 0.034 0.788 0.051 1.191 0.051 1.463-0.005 2.878-0.203 4.224-0.569l-0.227 0.052c1.233-0.311 2.306-0.71 3.32-1.21l-0.097 0.043-0.1 0.044 0.261-0.126v-13.372zM1.653 25.917c-0.164-0.17-0.393-0.275-0.647-0.275-0 0-0.001 0-0.001 0h0l-0.033 0.001h-0.011c-0 0-0.001 0-0.002 0-0.139 0-0.271 0.028-0.391 0.078l0.007-0.002 0.007-0.002c-0.23 0.093-0.408 0.272-0.498 0.496l-0.002 0.006-0.002 0.006c-0.044 0.108-0.070 0.233-0.070 0.365 0 0.005 0 0.010 0 0.015v-0.001 2.291c-0.006 0.162 0.025 0.322 0.090 0.47 0.056 0.121 0.133 0.223 0.228 0.306l0.001 0.001c0.087 0.074 0.193 0.131 0.308 0.162l0.006 0.001c0.112 0.031 0.227 0.047 0.342 0.047 0.525-0.011 0.946-0.438 0.949-0.964v-0.256h-0.6v0.218c-0 0.070-0.013 0.136-0.037 0.198l0.001-0.004 0.001-0.004c-0.020 0.051-0.050 0.094-0.087 0.129l-0 0c-0.069 0.053-0.155 0.086-0.25 0.088h-0c-0.011 0.001-0.023 0.002-0.035 0.002-0.1 0-0.189-0.049-0.244-0.123l-0.001-0.001-0.001-0.001c-0.050-0.081-0.080-0.178-0.080-0.283 0-0 0-0.001 0-0.001v0l0.001-0.024v0.001-2.136c-0-0.007-0-0.014-0-0.022 0-0.117 0.027-0.227 0.076-0.324l-0.002 0.004c0.055-0.085 0.149-0.14 0.257-0.14 0.013 0 0.026 0.001 0.039 0.002l-0.001-0h0.010c0.105 0 0.198 0.051 0.256 0.129l0.001 0.001c0.062 0.080 0.099 0.182 0.099 0.293 0 0 0 0.001 0 0.001v-0 0.211h0.593v-0.244c0-0.14-0.027-0.275-0.076-0.398l0.003 0.007c-0.047-0.125-0.115-0.233-0.201-0.323l0 0zM5.21 25.891c-0.18-0.157-0.417-0.252-0.677-0.252-0.13 0-0.254 0.024-0.368 0.067l0.007-0.002c-0.245 0.089-0.438 0.268-0.544 0.496l-0.002 0.006-0.002 0.006c-0.056 0.125-0.088 0.272-0.088 0.425 0 0.007 0 0.013 0 0.020v-0.001 2.197c-0.004 0.155 0.026 0.308 0.088 0.45 0.056 0.121 0.135 0.224 0.231 0.306l0.001 0.001c0.088 0.082 0.193 0.148 0.31 0.191l0.006 0.002c0.107 0.041 0.23 0.065 0.359 0.065 0.262 0 0.501-0.098 0.682-0.26l-0.001 0.001-0.001 0.001c0.094-0.084 0.17-0.187 0.224-0.301l0.002-0.006c0.062-0.142 0.091-0.296 0.088-0.45v-2.217c0-0 0-0.001 0-0.001 0-0.155-0.033-0.303-0.093-0.436l0.003 0.007 0.003 0.007c-0.056-0.125-0.132-0.232-0.225-0.321l-0-0zM4.93 28.853l0.001 0.034c0 0 0 0 0 0 0 0.111-0.046 0.212-0.12 0.284l-0 0c-0.076 0.065-0.174 0.104-0.282 0.104s-0.207-0.039-0.283-0.104l0.001 0 0.001 0.001c-0.074-0.072-0.12-0.172-0.12-0.283 0-0 0-0 0-0v0l0.002-0.036v0.002-2.198l-0.001-0.034c0-0.111 0.046-0.212 0.12-0.284 0.076-0.065 0.174-0.104 0.282-0.104s0.207 0.039 0.283 0.104l-0.001-0-0.001-0.001c0.074 0.072 0.12 0.172 0.12 0.282 0 0.013-0.001 0.026-0.002 0.038l0-0.002v-0.002 2.197zM9.882 29.834v-4.16h-0.575l-0.757 2.202h-0.010l-0.763-2.201h-0.569v4.159h0.594v-2.53h0.011l0.581 1.788h0.296l0.587-1.788h0.010v2.53h0.594zM13.258 25.966c-0.090-0.101-0.203-0.179-0.33-0.226l-0.006-0.002c-0.119-0.041-0.257-0.064-0.4-0.064-0.002 0-0.005 0-0.007 0h-0.908v4.159h0.593v-1.624h0.305c0.185 0.008 0.369-0.030 0.535-0.113 0.134-0.076 0.244-0.182 0.321-0.31l0.002-0.004 0.002-0.004c0.065-0.104 0.113-0.226 0.135-0.356l0.001-0.006c0.023-0.156 0.034-0.314 0.032-0.473 0.001-0.020 0.001-0.044 0.001-0.068 0-0.187-0.021-0.368-0.062-0.542l0.003 0.016c-0.042-0.15-0.118-0.278-0.219-0.382l0 0zM12.952 27.234c-0.003 0.081-0.023 0.156-0.057 0.223l0.001-0.003 0.001-0.003c-0.034 0.063-0.086 0.113-0.149 0.144l-0.002 0.001-0.002 0.001c-0.072 0.033-0.156 0.053-0.245 0.053-0.001 0-0.003 0-0.004 0h0l-0.032-0.001h-0.269v-1.414h0.306l0.029-0.001c0.087 0 0.169 0.019 0.242 0.054l-0.003-0.001c0.060 0.036 0.108 0.088 0.137 0.15l0.001 0.002 0.001 0.002c0.033 0.072 0.050 0.152 0.052 0.231v0.277c0 0.097 0.006 0.197 0 0.286h-0.006zM16.065 25.675h-0.486l-0.917 4.159h0.593l0.174-0.894h0.808l0.174 0.894h0.593l-0.939-4.16zM15.518 28.374l0.292-1.508h0.011l0.29 1.508h-0.592zM19.894 28.181h-0.011l-0.895-2.506h-0.57v4.159h0.593v-2.501h0.012l0.906 2.501h0.557v-4.159h-0.592v2.506zM23.516 25.675l-0.477 1.654h-0.012l-0.477-1.654h-0.627l0.814 2.402v1.758h0.593v-1.759l0.814-2.401h-0.628zM0 31.009h0.286v0.801h0.194v-0.801h0.284v-0.164h-0.763v0.164zM2.401 30.844l-0.374 0.966h0.206l0.080-0.22h0.385l0.083 0.22h0.211l-0.384-0.966h-0.206zM2.371 31.428l0.131-0.358 0.131 0.358h-0.263zM4.775 31.454h0.223v0.124c-0.062 0.050-0.142 0.081-0.229 0.081h-0.014c-0.077-0-0.146-0.036-0.191-0.092l-0-0c-0.045-0.064-0.072-0.143-0.072-0.229 0-0 0-0.001 0-0.001v0l0.001-0.023v0.001c0-0.215 0.093-0.322 0.278-0.322l0.020-0.001c0.095 0 0.175 0.065 0.198 0.154v0.001l0.191-0.037c-0.041-0.189-0.177-0.284-0.409-0.284h-0.013c-0 0-0.001 0-0.001 0-0.124 0-0.238 0.047-0.324 0.124l0-0c-0.086 0.085-0.14 0.203-0.14 0.334 0 0.014 0.001 0.028 0.002 0.042l-0-0.002v-0.002 0.022c0 0.13 0.047 0.249 0.125 0.341l-0.001-0.001c0.085 0.088 0.203 0.142 0.335 0.142 0.001 0 0.001 0 0.002 0h-0l0.032-0.001h0.014c0 0 0 0 0 0 0.152 0 0.291-0.059 0.394-0.154l-0 0v-0.38h-0.418v0.163zM7.199 30.844h-0.196v0.966h0.676v-0.165h-0.481v-0.801zM9.249 30.844h-0.196v0.966h0.196v-0.966zM11.253 31.489l-0.396-0.645h-0.189v0.966h0.181v-0.632l0.388 0.631h0.194v-0.966h-0.179v0.645zM13.064 31.384h0.481v-0.164h-0.481v-0.212h0.517v-0.164h-0.713v0.966h0.733v-0.165h-0.537v-0.261zM17.456 31.225h-0.38v-0.38h-0.193v0.966h0.193v-0.423h0.38v0.423h0.194v-0.966h-0.194v0.38zM19.279 31.384h0.483v-0.164h-0.483v-0.212h0.519v-0.164h-0.712v0.966h0.732v-0.165h-0.537v-0.261zM21.75 31.384c0.168-0.025 0.254-0.115 0.254-0.268 0.001-0.008 0.002-0.018 0.002-0.027 0-0.077-0.037-0.144-0.095-0.186l-0.001-0h-0.001c-0.070-0.037-0.154-0.058-0.242-0.058-0.001 0-0.002 0-0.003 0h0l-0.039 0.001h-0.407v0.966h0.194v-0.405h0.054c0.038 0 0.074 0.008 0.107 0.023l-0.002-0.001c0.029 0.018 0.052 0.042 0.068 0.070l0.001 0.001 0.211 0.307h0.232l-0.118-0.189c-0.053-0.093-0.124-0.17-0.209-0.229l-0.002-0.002-0.002-0.002zM21.554 31.251h-0.143v-0.243h0.153c0.013-0.001 0.028-0.002 0.044-0.002 0.056 0 0.11 0.009 0.161 0.027l-0.003-0.001-0.004-0.001c0.026 0.023 0.043 0.057 0.043 0.095 0 0.022-0.006 0.043-0.016 0.062l0-0.001v-0.001c-0.009 0.017-0.021 0.031-0.036 0.042l-0 0c-0.048 0.015-0.103 0.024-0.161 0.024-0 0-0 0-0 0h0l-0.038-0.001h0.002zM23.614 31.384h0.481v-0.164h-0.481v-0.212h0.519v-0.164h-0.715v0.966h0.733v-0.165h-0.537v-0.261z"></path>
</symbol>
<symbol id="icon-facebook-1" viewBox="0 0 32 32">
<path d="M21.328 5.312h2.923v-5.088c-1.211-0.143-2.615-0.224-4.037-0.224-0.025 0-0.049 0-0.074 0h-0.145c-4.213 0-7.099 2.65-7.099 7.52v4.48h-4.646v5.688h4.646v14.312h5.699v-14.31h4.459l0.709-5.688h-5.17v-3.922c0-1.643 0.443-2.768 2.734-2.768z"></path>
</symbol>
<symbol id="icon-envelope-1" viewBox="0 0 43 32">
<path d="M38.667 0h-34.667c-2.205 0-4 1.795-4 4v24c0 2.205 1.795 4 4 4h34.667c2.205 0 4-1.795 4-4v-24c0-2.205-1.795-4-4-4zM38.667 2.667c0.181 0 0.355 0.037 0.512 0.104l-17.845 15.467-17.845-15.467c0.151-0.065 0.327-0.104 0.512-0.104h34.667zM38.667 29.333h-34.667c-0.736 0-1.333-0.597-1.333-1.333v0-22.413l17.792 15.421c0.233 0.203 0.539 0.327 0.875 0.327s0.642-0.124 0.876-0.328l-0.002 0.001 17.792-15.421v22.413c0 0.736-0.597 1.333-1.333 1.333z"></path>
</symbol>
<symbol id="icon-icon-send-1" viewBox="0 0 32 32">
<path d="M32 0l-32 18 10.227 3.787 15.773-14.787-11.997 16.187 0.009 0.003-0.012-0.003v8.813l5.735-6.691 7.267 2.691 4.999-28z"></path>
</symbol>
<symbol id="icon-Vector-4" viewBox="0 0 42 32">
<path stroke-linejoin="miter" stroke-linecap="butt" stroke-miterlimit="4" stroke-width="0.64" d="M6.263 15.205l-0.22-0.21-3.307 3.132 11.651 11.114 24.477-23.351-3.285-3.134-21.192 20.197-8.124-7.75z"></path>
</symbol>
<symbol id="icon-Vector-5-1" viewBox="0 0 34 32">
<path d="M30.34 3.556v24.887h-26.547v-24.887h26.547zM30.34 0h-26.547c-2.086 0-3.793 1.6-3.793 3.556v24.887c0 1.956 1.707 3.556 3.793 3.556h26.547c2.086 0 3.793-1.6 3.793-3.556v-24.887c0-1.956-1.707-3.556-3.793-3.556z"></path>
</symbol>
</defs>
</svg>
